<?xml version='1.0' encoding='utf-8'?>
<svg xmlns="http://www.w3.org/2000/svg" version="1.1" width="1024px" height="768px" viewBox="27 680 1024 768"> <g id="layer1"> <g style="fill:rgb(255,255,255); fill-opacity:1.0; stroke-linejoin: miter"> <path d="M26.998999,679.46136C26.856413,679.46136,26.719667,679.518,26.618845,679.61884C26.518023,679.71967,26.46138,679.8564,26.46138,679.99896L26.46238,1447.9999C26.46238,1448.2968,26.703081,1448.5375,26.999998,1448.5375L1051.0009,1448.5385C1051.1434,1448.5385,1051.2802,1448.4818,1051.381,1448.381C1051.4818,1448.2802,1051.5385,1448.1434,1051.5385,1448.0009L1051.5375,679.99994C1051.5375,679.703,1051.2968,679.46234,1050.9999,679.46234L26.998999,679.46136 Z"/> </g> <g style="fill:rgb(0,0,0); fill-opacity:0.5411765; stroke-linejoin: miter"> <path d="M762.00055,1331.1517L759.76227,1331.4703Q743.84906,1332.433,666.6386,1333.0103Q588.89386,1333.587,483.5391,1333.478Q382.99167,1333.3257,322.70798,1332.5863Q303.39236,1332.3474,290.8877,1332.0656L280.37787,1331.7759Q271.71677,1331.4768,271.6194,1331.1517Q274.24863,1330.1542,343.4341,1329.4918Q412.61948,1328.8295,516.80994,1328.8042Q621.0005,1328.8295,690.1859,1329.4918Q759.3713,1330.1542,762.00055,1331.1517"/> </g> <g style="fill:rgb(119,220,133); fill-opacity:1.0; stroke-linejoin: miter"> <path d="M554.00745,909.6923L545.22925,908.0966Q541.5307,920.8238,537.8279,933.55L537.8276,933.55084Q537.8256,933.5501,537.82324,933.5501Q536.0218,939.7574,534.21606,945.9639L534.2159,945.96466Q534.2138,945.9638,534.2114,945.9638Q511.15588,1025.2189,488.09625,1104.4731Q550.054,1122.5006,612.0118,1140.5276L612.0171,1140.53Q624.288,1144.0996,636.5587,1147.6702L636.5642,1147.6725Q647.0403,1150.7197,657.51636,1153.7678Q661.79767,1147.5101,666.3397,1140.0607Q677.5431,1121.9747,683.40173,1101.9241Q689.29895,1087.4384,689.69727,1048.7272L686.0041,1027.3558Q680.9033,1006.72906,670.17236,989.0822Q659.4413,971.43524,643.0801,956.76764Q610.91113,927.59515,554.00745,909.6923 Z"/> </g> <g style="fill:rgb(210,40,129); fill-opacity:1.0; stroke-linejoin: miter"> <path d="M297.56348,1159.2797Q297.1554,1163.83,300.69052,1167.1294Q311.176,1176.2892,325.5485,1178.4652Q327.3845,1179.4766,328.2876,1182.1771Q326.5222,1196.5695,318.18707,1206.7336Q317.73267,1212.2966,327.97183,1219.7393L320.09268,1231.7323Q330.40445,1244.9915,330.71683,1249.5817L322.94174,1277.1812Q321.94974,1283.4346,323.06708,1286.6707Q331.53082,1303.5176,346.71246,1307.5808L350.66162,1308.5159L410.08014,1309.9894Q414.22855,1313.4371,418.9453,1330.5448L482.0152,1330.5448L482.23047,1330.5457Q482.23053,1272.582,482.23053,1214.619Q482.22845,1214.6184,482.22638,1214.618L482.23053,1214.6188Q482.23053,1186.9491,482.23053,1159.2804L482.01526,1159.2811Q482.01083,1186.9205,482.01083,1214.5618Q482.01083,1186.9205,482.01083,1159.2804L412.3161,1159.28L412.31235,1159.2808L403.90164,1159.2817L403.8983,1159.2808Q403.8981,1159.2805,403.89795,1159.28L370.60864,1159.28L297.56607,1159.2797 Z M482.01968,1214.5641Q482.01968,1214.5652,482.01968,1214.5663L482.01526,1214.567Q482.01526,1214.5652,482.01526,1214.5641 Z"/> </g> <g style="fill:rgb(255,236,2); fill-opacity:1.0; stroke-linejoin: miter"> <path d="M659.0017,1159.278Q635.383,1159.278,611.7643,1159.2782Q611.7643,1159.2782,611.7643,1159.2782L611.7586,1159.279Q547.03156,1159.2784,482.30438,1159.2786L482.01083,1159.2793Q482.01083,1186.9208,482.01083,1214.563L482.01526,1214.5638Q482.01083,1221.0643,482.01083,1227.5658L482.01526,1227.5667Q482.01083,1279.0553,482.01077,1330.5448L620.16895,1330.5449Q610.8454,1303.1145,611.4623,1249.9072Q613.05115,1239.254,619.1339,1228.7798L651.01337,1179.9998Q655.1154,1171.3048,659.008,1159.278 Z M611.3684,1160.0397Q562.9676,1160.0402,514.5723,1160.0402L482.30887,1160.041Q546.8358,1160.04,611.3627,1160.0397 Z"/> </g> <g style="fill:rgb(88,80,148); fill-opacity:1.0; stroke-linejoin: miter"> <path d="M483.32327,955.4145L470.53467,956.74054Q410.89923,965.40814,378.8347,1001.03766Q368.14645,1012.9141,360.52176,1027.7863L353.4359,1044.9985Q344.04828,1066.9713,350.91956,1086.0382L307.9561,1139.6199Q301.42438,1148.6108,299.02948,1154.2616Q297.67096,1157.1553,297.5361,1159.6606Q355.029,1159.6604,412.52203,1159.6603Q412.52203,1159.6603,412.52203,1159.6603L412.5258,1159.661Q412.5258,1159.6603,412.52582,1159.6603Q447.26834,1159.6603,482.01077,1159.6602L482.22604,1159.6609Q482.23053,1159.4703,482.23053,1159.2804Q482.23053,1159.4703,482.23053,1159.6602L483.32758,1159.6609Q483.32758,1159.4697,483.32758,1159.2793Q483.32764,1077.0044,483.32764,994.73004L483.32327,994.7309Q483.32764,975.0723,483.32764,955.4145 Z M482.30438,1159.2786Q482.30438,1159.2786,482.30438,1159.2786L482.2999,1159.2793L482.29752,1159.2787L482.29752,1159.2794L482.30438,1159.2786 Z M412.309,1159.2808Q412.309,1159.2808,412.309,1159.2808L412.3053,1159.2817L403.90164,1159.2825Q403.90143,1159.282,403.90125,1159.2817L403.89862,1159.2825L412.309,1159.2808 Z"/> </g> <g style="fill:rgb(255,255,255); fill-opacity:1.0; stroke-linejoin: miter"> <path d="M617.0158,1159.2189L616.4454,1164.4324Q614.9993,1171.4092,611.5754,1177.0604Q606.8629,1183.8345,605.3271,1184.7916Q602.87354,1187.1201,599.92566,1189.1176Q593.99005,1193.1072,587.2259,1194.8396Q583.8438,1195.7057,580.25464,1196.0078Q571.10034,1196.2688,569.0209,1195.644Q561.5902,1194.2523,555.56085,1191.0083Q552.5462,1189.3862,549.88184,1187.3008Q548.3306,1186.5477,542.677,1180.0033Q534.1314,1168.8094,535.1769,1154.5428Q535.84625,1147.1696,538.86975,1141.2085Q542.96423,1134.0203,544.3764,1132.9801Q546.5828,1130.486,549.28357,1128.3231Q550.4489,1126.9158,558.2507,1122.8181Q561.42566,1121.3875,564.8078,1120.5214Q571.5719,1118.789,579.1646,1119.3134Q587.01337,1119.9769,593.3705,1122.8463Q595.1844,1123.2521,602.1517,1128.0599Q604.81604,1130.145,607.13007,1132.6935Q611.821,1137.8536,614.3565,1144.1025Q617.1658,1150.6315,617.0158,1159.2189"/> </g> <g style="fill:rgb(255,255,255); fill-opacity:1.0; stroke-linejoin: miter"> <path d="M528.39404,1075.4908L527.82355,1080.7043Q524.5699,1096.4023,511.30374,1105.3894Q497.94867,1114.366,480.39902,1111.9158Q463.67993,1108.7847,454.05502,1096.2751Q444.44138,1083.6819,446.96637,1067.2004Q450.2201,1051.5023,463.4863,1042.5151Q476.8413,1033.539,494.39087,1035.9889Q511.10992,1039.1201,520.7349,1051.6295Q523.81757,1055.672,525.73486,1060.3746L527.3139,1065.1948Q528.578,1070.156,528.39404,1075.4908"/> </g> <g style="fill:rgb(210,40,129); fill-opacity:1.0; stroke-linejoin: miter"> <path d="M438.4283,1157.5714L437.85776,1162.7848Q436.4117,1169.7617,432.98785,1175.413Q428.2754,1182.187,426.73956,1183.1442Q424.2861,1185.4727,421.338,1187.4698Q415.40244,1191.4594,408.63828,1193.1918Q407.0767,1193.9775,398.02594,1194.521Q394.33316,1194.5406,390.43323,1193.9962Q383.00253,1192.6046,376.97318,1189.3605Q373.9584,1187.7383,371.29404,1185.6531Q364.93964,1180.035,364.0892,1178.3556Q355.54382,1167.1615,356.58917,1152.8953Q357.25858,1145.5221,360.28207,1139.5609Q361.7468,1136.5696,363.70593,1133.9098Q369.03647,1127.5498,370.6959,1126.6755Q371.86118,1125.2681,379.66306,1121.1703Q382.83795,1119.74,386.2201,1118.8737Q392.9842,1117.1412,400.57684,1117.666Q408.42566,1118.3293,414.7828,1121.1987Q422.45093,1125.0803,423.56412,1126.4124Q426.22855,1128.4974,428.5425,1131.0459Q433.23346,1136.2062,435.7691,1142.4552Q438.57816,1148.9841,438.4283,1157.5714"/> </g> <g style="fill:rgb(210,40,129); fill-opacity:1.0; stroke-linejoin: miter"> <path d="M522.05286,1255.5126L521.48236,1260.7261Q519.483,1269.0977,516.6124,1273.3539Q513.7395,1277.5841,511.20374,1280.3726Q508.08798,1283.2875,504.96268,1285.411Q498.14276,1289.8536,491.199,1291.4702Q480.2407,1293.1631,474.92197,1292.0515Q458.2215,1289.2262,448.36356,1277.2375Q443.5909,1270.8512,442.01227,1265.7396Q441.24042,1264.439,440.2228,1257.0254Q439.9815,1254.007,440.2138,1250.8365Q442.18628,1233.7421,455.1662,1223.8584Q468.50763,1214.2961,484.20148,1215.6072Q490.4626,1215.8917,498.4075,1219.14Q507.71255,1223.4879,511.64865,1228.4265Q517.61316,1234.964,519.9813,1241.8727Q522.1861,1247.8794,522.05286,1255.5126"/> </g> <g style="fill:rgb(119,220,133); fill-opacity:1.0; stroke-linejoin: miter"> <path d="M617.6692,1141.3188L615.665,1146.1654Q613.2294,1151.2534,607.46075,1156.93Q601.4764,1161.6831,600.30664,1162.1582Q596.50073,1164.0865,592.9064,1165.2522Q578.93945,1169.973,562.5666,1163.4655Q546.96124,1156.2853,540.4836,1140.5068Q539.6086,1139.0558,538.2169,1131.7198Q537.83417,1128.7808,537.94867,1125.8284Q538.1774,1119.9233,540.39496,1113.9648Q542.3012,1108.3925,547.66614,1102.1935Q553.2082,1096.9126,554.30835,1096.354Q557.3618,1094.3844,562.2889,1092.2386Q577.7705,1086.7843,592.47327,1092.4279Q608.2082,1098.5176,615.2462,1112.4048Q619.147,1120.3483,619.49066,1127.6433Q619.9297,1134.0269,617.6692,1141.3188"/> </g> <g style="fill:rgb(119,220,133); fill-opacity:1.0; stroke-linejoin: miter"> <path d="M564.3171,1039.9628L562.3129,1044.8093Q557.8064,1052.2787,556.44653,1053.2251Q554.20435,1055.6881,551.58014,1057.6948Q546.3316,1061.7083,539.5544,1063.8962Q532.7406,1066.0685,525.7618,1065.8423Q524.0427,1066.1606,515.2006,1064.1536Q511.64944,1063.1407,508.05685,1061.5286Q501.31082,1058.1161,496.42792,1053.3168Q493.98648,1050.9171,492.01074,1048.1707Q490.7317,1047.0142,487.13135,1039.1508Q482.05368,1026.0153,487.0431,1012.6091Q489.74567,1005.7166,494.31415,1000.83746Q495.19626,999.3206,501.9003,994.47516Q504.7155,992.6966,507.91296,991.3743Q509.42508,990.34845,518.06104,988.5938Q521.5092,988.1071,524.9987,988.2205Q531.9774,988.44684,539.1212,991.0717Q546.4721,993.9018,551.7745,998.4327Q558.05304,1004.30194,558.7497,1005.8919Q560.7256,1008.6386,562.2356,1011.73175Q565.29803,1017.99725,565.9868,1024.7056Q566.8601,1031.7598,564.3171,1039.9628"/> </g> <g style="fill:rgb(255,185,142); fill-opacity:1.0; stroke-linejoin: miter"> <path d="M638.6059,906.1523L638.6059,906.1514L638.60565,906.15094L638.6062,906.1514L638.6062,906.15094C640.4656,906.31024,642.50415,906.5286,643.1303,906.58844C645.61365,906.82526,652.8053,907.1805,655.1092,907.2132C656.4923,907.23334,658.9759,907.32904,660.655,907.4246C664.38965,907.6381,681.65485,907.6545,686.15015,907.5142C687.9441,907.45807,690.00146,907.4283,690.77576,907.42426C691.5336,907.4202,693.70447,907.316,695.6324,907.20404C697.57385,907.0909,700.20917,906.95624,701.55945,906.90717C708.11127,906.67,731.0632,900.01544,738.0753,896.3254C746.48096,891.9024,749.30756,890.47906,751.7089,889.4543C753.15204,888.8378,755.8034,887.5704,757.63336,886.63873C759.4178,885.7304,763.3269,884.12274,766.3269,883.08136C773.66284,880.88763,782.4394,880.4372,782.4394,880.4372C784.9739,880.30707,789.0578,880.07855,793.4706,879.8389C800.0895,879.48004,801.9824,879.41864,803.4639,879.4167C804.3363,879.4151,805.963,879.3322,806.9704,879.25446C810.5579,878.97894,813.68774,878.8754,814.80707,878.93475C815.41583,878.9677,817.37476,878.9028,819.15344,878.8271C825.2605,878.5672,783.6978,880.68964,819.5411,878.62836L839.03815,880.04205C851.62103,946.404,844.2364,945.26447,844.2364,945.26447C843.546,945.15826,842.6136,944.95355,842.1318,944.858C841.67535,944.76715,840.8639,944.69415,840.4214,944.6512C839.95746,944.6066,836.98334,944.1882,833.82574,943.74286C830.66785,943.29767,826.55566,942.78143,824.6969,942.6235C822.83734,942.46466,820.30597,942.23505,819.0534,942.1152C812.27783,941.46674,807.10815,941.4317,799.7639,941.91095C796.8665,942.09955,791.219,943.9267,789.2275,945.3592C786.60834,947.2431,784.28674,949.5369,782.5245,951.9887C780.78723,954.40656,779.7019,955.7548,778.66364,956.757C778.3284,957.08075,776.97754,958.6275,775.6656,960.14777C769.4738,967.32623,763.09766,971.79474,747.4109,980.0749C736.05927,986.06586,726.6126,993.4694,720.3668,1001.19244C719.2045,1002.6302,717.80206,1004.2601,717.3188,1004.764C716.5775,1005.5378,712.0205,1011.9826,709.57245,1015.73334C708.8837,1016.7884,704.0466,1025.0203,700.9657,1030.4341C698.761,1034.3077,695.6262,1037.544,693.9145,1037.6708C690.4398,1037.9275,686.29395,1034.6332,684.96686,1030.5769C684.2383,1028.3511,683.9486,1022.7249,684.5196,1022.0158C684.7284,1021.75616,684.7544,1021.2264,684.6249,1020.8305C684.3335,1019.94037,686.1394,1014.2542,688.42584,1009.0174C690.23956,1004.86163,695.8679,994.96246,698.9956,990.4434C700.03186,988.9445,701.0417,987.4782,701.21875,987.196C702.3371,985.4113,709.096,976.4578,709.34296,976.377C709.4917,976.3288,710.15533,975.54767,710.8012,974.6401C712.59393,972.12067,717.95953,965.88995,718.4541,965.72797C718.75116,965.63055,719.1888,964.9865,719.4821,964.351C720.0219,963.18085,719.6864,963.134,709.4645,963.1934C703.67114,963.2275,698.32166,963.2613,697.5477,963.2602C689.9923,963.24896,677.73206,966.63116,671.91486,970.27985C667.69055,972.93,661.5758,977.20306,660.0186,978.6092C659.2927,979.26483,658.46405,979.8851,658.16736,979.9821C657.87067,980.0789,657.29944,980.49347,656.89453,980.9465C656.5371,981.34564,654.6612,982.961,652.7601,984.54425C647.94775,988.55304,646.5594,989.6956,641.74585,994.064C640.14166,995.51996,638.6863,996.763,638.4392,996.84406C638.1917,996.925,637.4897,997.47284,636.83545,998.13544C634.7751,1000.2232,632.5839,1002.0457,631.89166,1002.27264C631.49585,1002.4023,631.0976,1002.77997,630.89954,1003.0905C630.6978,1003.4068,629.42725,1004.44867,628.1052,1005.4289C626.7828,1006.40936,625.2021,1007.5927,624.63434,1008.043C624.02844,1008.52435,621.71826,1009.8532,619.48254,1011.0433C615.8416,1012.981,615.0075,1013.2487,611.35364,1013.649C602.4248,1014.62836,597.3193,1012.22565,598.2534,1007.4216C598.8094,1004.5633,601.16254,1002.4417,608.47565,998.1612C617.2948,992.99994,623.67584,987.54584,626.9304,982.4285C629.56976,978.27814,636.6799,969.5113,641.3309,964.6812C647.3069,958.47565,647.2069,957.8692,640.4677,960.0347C637.9399,960.8471,634.0224,961.7609,631.71674,962.0772C629.41034,962.39386,626.82367,962.8571,626.03217,963.1165C623.7072,963.87726,617.0379,964.43256,611.90393,964.28986C603.7738,964.06415,596.31024,962.33,591.586,959.6032C586.9248,956.9128,585.68787,953.8499,587.67163,949.986C588.93243,947.52985,589.82776,947.1934,592.8673,947.95636C594.18365,948.2869,595.5473,948.4489,595.8935,948.33563C596.2397,948.2222,596.79926,948.25836,597.1277,948.42474C598.04675,948.89044,610.9315,949.4382,612.1185,949.0495C612.6627,948.87164,614.21027,948.759,615.59296,948.78876C618.29156,948.84674,631.11505,944.8494,634.73474,942.8526C636.7283,941.75275,636.9555,940.2707,635.077,940.55035C634.5011,940.6357,631.7841,940.67596,629.085,940.6491C610.68445,940.4622,599.9565,936.48883,603.5594,931.0944C604.9181,929.05975,606.0246,928.4002,608.5292,928.2083C610.8328,928.03204,615.54346,927.5484,623.1046,926.5599C625.5745,926.2369,628.626,925.8853,629.9567,925.7409C632.3819,925.47784,636.34924,924.8641,642.7073,923.7038C644.6697,923.3454,647.38385,922.9191,648.7034,922.7818C652.04474,922.4345,657.9569,921.0441,658.4108,920.48126C658.7373,920.07574,654.89856,918.61847,654.1566,918.86163C654.00836,918.90985,652.9398,918.65717,651.8225,918.25616C650.7054,917.85504,649.63745,917.6016,649.48895,917.65094C649.29114,917.71564,648.0682,917.3663,646.7768,916.8951C645.4562,916.414,644.21405,916.0914,644.0162,916.15594C643.7686,916.237,642.55237,915.86786,641.33765,915.3349C640.1224,914.8018,638.40985,914.28925,637.60785,914.1464C636.0252,913.86456,631.2697,911.34625,631.0267,910.60443C630.9459,910.3571,631.0987,909.57245,631.38214,908.8453C632.2011,906.7464,634.72345,905.8344,638.6059,906.1523L638.6062,906.1514L638.6059,906.1523L638.6059,906.1514L638.6059,906.1523 Z"/> </g> <g style="fill:rgb(255,255,255); fill-opacity:1.0; stroke-linejoin: miter"> <path d="M560.3575,1159.1912L560.3575,1159.1913L560.35754,1159.1914L560.3575,1159.1913L560.3575,1159.1912L560.3575,1159.1913L560.35754,1159.1914Q560.3575,1159.1913,560.3575,1159.1912"/> </g> <g style="fill:rgb(17,82,126); fill-opacity:1.0; stroke-linejoin: miter"> <path d="M1049.352,807.31824L773.8184,859.36694L795.12555,972.16656L1049.3625,924.14685L1049.352,807.31824 Z"/> </g> </g> </svg>