<?xml version='1.0' encoding='utf-8'?>
<svg xmlns="http://www.w3.org/2000/svg" version="1.1" id="Layer_1" x="0px" y="0px" viewBox="0 0 1384.11 1368.89" style="enable-background:new 0 0 1384.11 1368.89;"> <g> <path d="M698.33,397.63c-111-0.72-198.54-89.19-198.77-198.42C499.34,88.99,588.03,0.35,697.94,0.18 c109.7-0.17,198.84,88.01,198.97,198.44C897.03,307.73,809.76,396.77,698.33,397.63z M675.38,170.27c-5.85,0-11.01-0.02-16.17,0.01 c-5.26,0.03-10.54-0.13-15.69,0.11c-0.91,5.75-0.64,34.95,0.34,38.02c10.34,0.18,20.78-0.09,31.65,0.16c0,32.43,0,64.29,0,96.26 c13.3,0,26.13,0,39.39,0c0-1.81,0-3.38,0-4.94c0-28.73,0-57.46,0.01-86.19c0-1.66,0.15-3.32,0.25-5.18 c11.08-0.13,21.66,0.04,32.34-0.11c1.66-12.9,3.25-25.24,4.92-38.13c-1.9,0-3.33,0-4.75,0c-9.44,0-18.89,0.01-28.33-0.01 c-1.39,0-2.78-0.19-4.31-0.3c0-9.68-0.03-18.84,0.03-28.01c0.01-1.31,0.39-2.63,0.74-3.91c1.19-4.27,3.8-7.42,8.13-8.52 c3.32-0.84,6.78-1.31,10.2-1.47c5.04-0.24,10.11-0.05,15.16-0.08c1.27-0.01,2.54-0.17,3.72-0.25c0.9-6.31,0.58-30.95-0.53-34.19 c-9.5-0.34-19.18-0.84-28.87-0.94c-4.09-0.04-8.26,0.41-12.27,1.25c-16.93,3.56-28.19,13.59-33.38,30.19 c-1.75,5.61-2.53,11.42-2.58,17.3c-0.07,7.98-0.02,15.96-0.02,23.94C675.38,166.71,675.38,168.15,675.38,170.27z"/> </g> <g> <path d="M232.48,1368.89c-117.39-1.08-207.03-95.14-206.17-207.77c0.89-115.99,95.3-206.14,208.51-204.85 c113.29,1.29,204.85,93.03,203.97,207.79C437.92,1277.69,346.69,1368.15,232.48,1368.89z M266.5,1110.99 c0-1.17-0.07-1.95,0.01-2.72c0.62-5.54,1.4-11.07,1.9-16.63c0.83-9.2,0.46-18.33-2.13-27.27c-1.61-5.56-4.08-10.67-8.27-14.8 c-7.29-7.19-19.56-8.96-27.63-4.07c-2.99,1.81-4.82,4.1-4.34,7.8c0.17,1.31,0.15,2.65,0.2,3.98c0.3,7.7,0.73,15.41,0.85,23.12 c0.09,6-1.91,11.56-4.88,16.66c-4.08,7-8.57,13.75-12.79,20.67c-4,6.58-8.05,13.14-11.74,19.89c-2.3,4.21-3.61,8.83-3.6,13.75 c0.02,22.6,0.06,45.21-0.03,67.81c-0.02,5.57,2.2,9.77,6.73,12.77c1.98,1.31,4.09,2.5,6.28,3.41c7.35,3.07,15.12,4.12,23,4.16 c20.74,0.1,41.49,0.07,62.23,0.01c2.64-0.01,5.31-0.33,7.91-0.8c10.93-1.99,17.9-10.8,17.39-21.9c-0.1-2.09-0.45-4.18-0.72-6.53 c5.65-2.03,9.95-5.62,12.18-11.26c2.25-5.71,1.79-11.43-0.73-17.21c6.56-3.62,9.96-8.94,10.17-16.24c0.2-7.05-0.77-13.6-6.99-17.86 c1.11-3.24,2.35-6.05,3.04-9c3.16-13.45-3.54-23.97-17.01-26.64c-3.23-0.64-6.59-0.82-9.9-0.85c-12.23-0.1-24.47-0.03-36.7-0.05 C269.52,1111.19,268.1,1111.06,266.5,1110.99z M180.85,1194.58c0-2.93,0-5.85,0-8.78c0-12.5,0.06-25-0.03-37.49 c-0.05-6.85-4.12-11.24-10.72-11.36c-9.97-0.17-19.95-0.17-29.91,0.01c-5.99,0.11-9.84,4.07-10.34,10.01 c-0.1,1.19-0.09,2.39-0.09,3.59c0,29.38-0.01,58.77,0.01,88.15c0,1.59,0.02,3.2,0.22,4.77c0.64,4.96,4.33,8.71,9.27,8.8 c10.63,0.18,21.27,0.16,31.91,0.01c4.55-0.06,8.02-3.08,9.14-7.53c0.42-1.65,0.52-3.41,0.53-5.12 C180.86,1224.63,180.85,1209.6,180.85,1194.58z"/> </g> <g> <path d="M412.49,67.24c6.15-0.97,12.36-1.68,18.44-2.98c10.54-2.24,20.75-5.65,30.69-9.83c0.84-0.35,1.71-0.63,3.36-1.23 c-0.74,1.44-1.09,2.34-1.62,3.1c-11.47,16.51-25.09,30.99-41.22,43.01c-2.98,2.22-4.08,4.45-4.05,8.21 c0.68,77.51-25.87,144.49-79.3,200.42c-35.77,37.44-79.69,61.01-130.22,72.24c-24.14,5.36-48.63,7.4-73.29,6.32 c-47.14-2.07-90.92-15.45-131.15-40.22c-0.98-0.6-1.89-1.31-2.81-2.37c51.16,4.71,97.24-8.02,138.31-39.19 c-27.97-2.06-51.25-13.33-69.52-34.44c-8.07-9.32-14.01-19.93-17.9-32.51c13.98,1.84,27.41,2.33,41.53-1.62 c-22.33-5.73-40.56-16.6-54.38-34.18c-13.85-17.61-20.88-37.63-20.62-60.87c13.1,6.8,26.32,11.15,41.77,11.63 c-26.95-20.6-41.13-46.82-41.05-80.08c0.04-16.63,4.31-32.17,12.99-47.16c37.68,45.3,84.4,75.69,140.71,91.04 c18.08,4.93,36.5,7.9,55.5,8.6c-0.56-4.43-1.11-8.47-1.59-12.53c-1.72-14.85,0.51-29.22,5.94-43.02 c10.62-26.99,29.58-46.02,56.91-55.6c33.37-11.7,64.39-6.22,92.43,15.45c2.52,1.95,4.95,4.07,7.12,6.38 c1.81,1.94,3.7,2.16,6.08,1.62c10.38-2.35,20.64-5.17,30.4-9.43c7.66-3.34,15.11-7.18,22.65-10.8c1.06-0.51,2.11-1.06,3.98-2.01 c-0.64,2.04-0.99,3.38-1.48,4.67c-6.97,18.29-18.51,33.05-34.41,44.42c-1.4,1-2.84,1.97-4.25,2.95c0,0-0.1,0.13-0.1,0.13 L412.49,67.24z"/> </g> <g> <path d="M1355.65,876.12c-116.49,0-232.77,0-349.34,0c0-116.69,0-233.09,0-349.75c116.51,0,232.8,0,349.06,0 C1356.26,529.26,1356.57,870.16,1355.65,876.12z M1282.38,793.18c0-2.07,0-3.66,0-5.24c0-21.67,0.07-43.34-0.04-65.02 c-0.04-7.3-0.34-14.62-0.89-21.9c-0.57-7.58-2.21-14.97-5.26-22c-4.86-11.19-13.19-18.41-24.82-21.95 c-7.22-2.2-14.62-2.77-22.09-2.44c-14.17,0.63-25.95,6.15-34.8,17.46c-0.51,0.65-1.18,1.17-2.49,2.45c0-6.06,0-11.17,0-16.35 c-13.82,0-27.17,0-40.46,0c-0.86,4.53-0.71,131.89,0.14,134.97c13.86,0,27.75,0,42.15,0c0-1.66,0-3.08,0-4.51 c-0.01-21.27-0.07-42.55,0-63.82c0.01-3.84,0.3-7.72,0.88-11.51c2.16-14.22,10.78-21.59,24.37-21.06 c10.05,0.39,16.3,5.11,18.57,14.88c1.16,5,1.67,10.25,1.72,15.39c0.21,21.94,0.14,43.87,0.16,65.81c0,1.55,0,3.09,0,4.84 C1254.02,793.18,1267.91,793.18,1282.38,793.18z M1125.68,658.17c-14.41,0-28.31,0-42.15,0c-0.82,4.6-0.67,131.81,0.11,134.81 c5,0.81,39.21,0.57,42.03-0.32C1125.68,747.93,1125.68,703.18,1125.68,658.17z M1129.17,615.6c-0.04-13.54-11.11-24.6-24.64-24.62 c-13.69-0.02-24.78,11.14-24.75,24.92c0.03,13.59,10.99,24.49,24.64,24.5C1118.29,640.42,1129.21,629.47,1129.17,615.6z"/> </g> <g> <path d="M642.91,884.85c1.04-1.82,1.88-3.31,2.75-4.79c8.61-14.7,16.87-29.61,21.65-46.07c3.37-11.61,6.18-23.37,9.25-35.07 c1.05-3.98,2.1-7.97,3.19-11.94c0.27-0.97,0.7-1.91,1.86-3.33c0.22,0.5,0.35,1.06,0.66,1.49c8.44,11.94,20.55,17.97,34.49,20.17 c22.99,3.63,44.09-2.07,63.33-14.75c19.02-12.53,32.08-30.06,40.99-50.8c8.8-20.48,12.88-41.98,11.65-64.19 c-2.43-44.11-23.53-76.72-62.29-97.75c-18.68-10.14-38.92-14.65-60.14-14.96c-19.57-0.29-38.79,1.97-57.18,8.89 c-43.08,16.21-69.42,46.83-77.79,92.27c-4.86,26.35-0.57,51.33,12.91,74.59c4.37,7.54,9.73,14.34,16.68,19.65 c3.24,2.48,6.88,4.51,10.55,6.33c2.95,1.46,4.67,0.63,5.48-2.43c2.11-7.96,4.01-15.98,5.95-23.98c0.47-1.95-0.32-3.61-1.5-5.17 c-10.46-13.76-14.93-29.54-15.1-46.58c-0.37-37.06,22.45-70.13,57.38-82.57c23.92-8.51,48.1-8.57,71.66,1.35 c26.02,10.96,41.61,30.98,46.5,58.58c4.51,25.4,0.83,50.09-10.3,73.45c-5.89,12.35-14.25,22.82-26.23,29.82 c-10.91,6.37-22.59,9.29-35.19,5.93c-15.77-4.21-25-19.13-21.11-35.05c2.97-12.12,6.78-24.03,10.28-36.02 c2.72-9.32,5.47-18.62,6.39-28.34c0.6-6.33-0.14-12.49-2.74-18.33c-3.96-8.88-11.02-13.36-20.59-14 c-10.16-0.68-18.46,3.34-25.16,10.66c-9.32,10.21-13.03,22.63-13.39,36.21c-0.28,10.35,1.13,20.43,5.11,30.05 c0.76,1.85,0.65,3.53,0.2,5.41c-7.41,31.15-14.7,62.33-22.16,93.47c-3.47,14.51-4.11,29.18-3.24,43.98 c0.29,5.04,0.77,10.07,1.12,15.11c0.08,1.15,0.01,2.31,0.01,3.58c-77.46-27.24-149.63-120.86-124.26-233.9 c26.12-116.4,145.08-184.42,257.85-150.04c113.45,34.59,173.46,157.21,130.93,267.43C849.52,876.87,729.65,914.01,642.91,884.85z"/> </g> <g> <path d="M718.98,1016.35c38.3,0,76.61-0.01,114.91,0.01c8.29,0,16.49,0.79,24.25,3.96c21.58,8.81,34.38,24.71,38.15,47.75 c0.49,3,0.69,6.09,0.7,9.13c0.04,48.94,0.12,97.89-0.01,146.83c-0.06,20.8-8.56,37.58-25.44,49.85c-8.9,6.47-18.95,10.27-30,10.66 c-11.29,0.4-22.61,0.61-33.9,0.34c-9.12-0.21-16.92,2.67-24.09,7.97c-7.63,5.65-14.13,12.5-20.53,19.45 c-6.13,6.65-12.02,13.52-18.36,19.96c-3.51,3.57-7.54,6.71-11.66,9.58c-5.08,3.54-10.64,3.51-15.69-0.05 c-4.21-2.97-8.33-6.22-11.91-9.91c-7.58-7.83-14.61-16.2-22.19-24.03c-5.07-5.24-10.49-10.19-16.14-14.81 c-7.01-5.73-15.11-8.42-24.38-8.16c-13.02,0.37-26.06,0.11-39.1,0.09c-9.81-0.01-19.36-1.41-28.23-5.88 c-21.13-10.67-32.47-27.91-34.32-51.46c-0.09-1.19-0.09-2.39-0.09-3.59c0-48.94-0.02-97.89,0.01-146.83 c0.01-13.88,4-26.5,12.62-37.45c10.93-13.89,25.22-21.71,42.92-23.02c3.58-0.27,7.17-0.37,10.76-0.37 C644.5,1016.34,681.74,1016.35,718.98,1016.35z M718.01,1104.79c-0.88-0.98-1.75-1.95-2.62-2.92 c-15.65-17.53-41.73-19.1-58.83-3.02c-14.25,13.4-18.2,30.08-13.6,48.9c1.98,8.09,6.43,14.84,11.94,20.92 c17.24,19.03,37.36,34.75,57.86,50.01c3.92,2.92,7.62,2.72,11.69-0.54c13.39-10.72,26.83-21.38,39.96-32.41 c7.43-6.24,14.47-13.01,20.29-20.83c12.77-17.13,14.3-35.55,4.44-54.33c-12.67-24.13-42.47-30.13-63.21-13.22 C723.26,1099.51,720.89,1102.06,718.01,1104.79z"/> </g> <g> <path d="M1347.9,1249.98c0.16,1.35,0.22,2.27,0.37,3.17c3.25,19.5-10.07,37.58-29.67,40.19c-2.23,0.3-4.5,0.48-6.75,0.48 c-38.96,0.03-77.92,0.06-116.89,0c-14-0.02-26.72-3.97-37.65-13.01c-1.12-0.92-2.39-1.68-3.66-2.38c-0.9-0.5-1.92-0.77-3.27-1.29 c-0.17,1.25-0.39,2.22-0.41,3.2c-0.06,3.06,0.06,6.12-0.06,9.17c-0.33,7.88-5.41,13.1-13.3,13.72c-1.32,0.11-2.66,0.08-3.99,0.08 c-23.67,0-47.34,0.01-71.01-0.01c-1.99,0-4.01-0.03-5.96-0.35c-6.27-1.02-10.72-5.95-11.18-12.25c-0.1-1.32-0.08-2.66-0.08-3.99 c0-50.13,0.18-100.26-0.14-150.39c-0.07-11.38,6.9-16.82,16.53-16.68c24.2,0.35,48.4,0.11,72.6,0.12c1.06,0,2.13-0.01,3.19,0.05 c7.53,0.41,12.88,5.72,13.33,13.26c0.1,1.69,0.01,3.39,0.01,6.13c4.07-3.53,8.03-5.71,10.24-9.8 c13.83-25.62,27.62-51.26,41.45-76.88c2.35-4.35,3.2-8.92,2.82-13.84c-1.28-16.57-2.45-33.14-3.66-49.71 c-0.07-0.91-0.01-1.84-0.01-2.81c7.88-5.36,16.11-9.33,25.98-8.57c7.9,0.61,14.55,4.01,20.46,8.99 c7.99,6.73,13.57,15.26,17.79,24.72c7.26,16.26,9.11,33.16,6.02,50.68c-1.55,8.77-2.75,17.59-4.09,26.39 c-0.08,0.51-0.01,1.04-0.01,2.01c1.7,0.11,3.37,0.32,5.04,0.32c23.14,0.02,46.28,0.04,69.41,0c7.71-0.01,15.06,1.19,21.81,5.22 c17.6,10.51,22.57,32.46,11.16,49.49c-0.44,0.66-0.89,1.32-1.52,2.25c7.64,8.2,11.95,17.78,10.64,29.23 c-1.31,11.41-7.11,20.12-17.02,26.53c3.73,9.05,4.13,18.14,0.45,27.2C1363.25,1239.55,1356.85,1245.86,1347.9,1249.98z M1363.25,1148.37c1.96-2.49,3.68-4.51,5.23-6.65c8.09-11.24,6.51-26.5-3.63-35.93c-6.06-5.63-13.21-8.16-21.43-8.15 c-26.6,0.05-53.2,0.02-79.81,0.02c-1.55,0-3.1,0-4.82,0c0.1-1.38,0.09-2.17,0.21-2.95c1.8-11.83,3.48-23.67,5.44-35.47 c3.33-20.08-0.79-38.58-11.52-55.71c-3.49-5.57-7.83-10.43-13.33-14.12c-9.69-6.5-19.58-6.73-29.66-0.87 c-1.53,0.89-2.29,1.83-2.13,3.78c1.2,14.44,2.17,28.9,3.44,43.34c0.67,7.65-0.55,14.69-4.29,21.51 c-11.94,21.81-23.88,43.63-35.3,65.72c-4.68,9.05-10.22,17.03-18.62,22.84c-2.34,1.62-2.95,3.68-2.94,6.45 c0.1,22.35,0.05,44.69,0.05,67.04c0,15.43,0.07,30.86-0.06,46.29c-0.02,2.83,0.92,4.23,3.48,5.4c3.23,1.48,6.34,3.36,9.18,5.5 c9.03,6.8,19.16,10.37,30.4,10.39c40.04,0.09,80.07,0.04,120.11,0.01c2.12,0,4.28-0.09,6.34-0.52 c15.62-3.24,25.11-18.42,21.45-34.15c-0.47-2.03-0.92-4.06-1.42-6.29c2.05-0.86,3.75-1.58,5.45-2.28 c4.13-1.71,7.74-4.16,10.58-7.61c7.35-8.94,8.6-18.85,4.47-29.55c-0.75-1.93-1.61-3.82-2.46-5.82c1.98-1.19,3.59-2.11,5.15-3.09 c16.5-10.36,18.72-31.53,4.72-45.06C1366.22,1151.16,1364.87,1149.9,1363.25,1148.37z M1051.14,1211.32c0,25,0,49.99,0,74.99 c0,1.33-0.07,2.67,0.11,3.98c0.47,3.47,2.9,5.71,6.39,6c0.93,0.08,1.86,0.04,2.79,0.04c24.46,0,48.93,0,73.39,0 c0.93,0,1.87,0.04,2.79-0.04c3.56-0.31,5.85-2.52,6.22-6.08c0.15-1.45,0.1-2.92,0.1-4.38c0-49.59,0-99.18,0-148.78 c0-1.33,0.04-2.66-0.07-3.99c-0.3-3.58-2.42-5.9-5.95-6.44c-1.17-0.18-2.39-0.11-3.58-0.11c-24.2-0.01-48.4,0-72.59,0 c-0.93,0-1.87-0.04-2.79,0.05c-4.09,0.4-6.49,2.87-6.78,6.99c-0.08,1.19-0.04,2.39-0.04,3.59 C1051.14,1161.86,1051.14,1186.59,1051.14,1211.32z"/> </g> <g> <path d="M214.46,486.95C97.72,486.92-0.43,580.92,0,702.13c0.43,121.47,99.35,214.33,215.52,213.7 c116.99-0.63,213.19-95.37,213.29-214.36C428.78,581.91,331.81,486.98,214.46,486.95z M328.44,725.45 c-0.67,9.94-1.41,19.88-3.63,29.65c-2.92,12.86-11.73,21.57-24.77,23.09c-12.93,1.51-25.93,2.52-38.93,3.13 c-15.54,0.72-31.1,0.78-50.54,1.21c-17-0.55-37.86-1.1-58.72-1.97c-7.42-0.31-14.84-1.21-22.21-2.21 c-13.9-1.9-22.79-9.82-25.79-23.51c-1.59-7.24-2.43-14.68-3.06-22.08c-1.41-16.58-1.56-33.21-0.8-49.83 c0.52-11.41,1.22-22.84,3.67-34.05c3.08-14.12,11.62-22.46,25.88-24.41c9.07-1.24,18.23-2.08,27.38-2.39 c22.32-0.74,44.66-1.34,66.99-1.48c21.54-0.13,43.07,0.74,64.55,2.43c4.88,0.38,9.8,1.03,14.56,2.18 c11.49,2.78,18.91,10.09,21.56,21.61c1.51,6.58,2.46,13.34,3.05,20.07C329.33,686.37,329.76,705.91,328.44,725.45z"/> <path d="M191.66,667.66c-0.09-0.05-0.25,0.02-0.37,0.05c-0.13,0.04-0.25,0.1-0.47,0.19c0,22.33,0,44.69,0,67.11 c3.15-0.71,55.62-30.28,60.07-33.9c-11.66-6.65-22.92-13.11-34.22-19.51C208.36,676.91,200,672.3,191.66,667.66z"/> </g> <g> <path d="M1382.98,128.5c-0.28-12.89-1.22-25.76-3.88-38.44c-5.19-24.73-16.54-45.85-36.08-62.27 c-18.15-15.26-39.53-22.69-62.7-25.11c-14.13-1.47-28.38-2.2-42.59-2.3c-43.62-0.29-87.24-0.91-130.85,0.52 c-13.17,0.43-26.29,1.24-39.21,4.05c-24.4,5.3-45.19,16.75-61.38,36.08c-13.47,16.07-20.52,34.9-24.06,55.26 c-2.47,14.2-2.94,28.59-3.05,42.93c-0.31,39.23-0.25,78.47-0.18,117.7c0.02,10.37,0.48,20.74,1.02,31.1 c0.51,9.83,1.63,19.6,3.81,29.22c5.44,23.95,16.88,44.31,35.8,60.26c17.8,15,38.8,22.39,61.52,24.94 c13.32,1.49,26.78,2.19,40.19,2.3c45.21,0.36,90.43,1.03,135.64-0.47c11.44-0.38,22.83-1.13,34.09-3.25 c17.37-3.26,33.44-9.65,47.6-20.32c20.96-15.78,33.59-36.93,39.68-62.25c3.45-14.32,4.28-28.92,4.62-43.54 c0.56-24.06,0.79-48.13,1.13-70.26C1383.73,177.96,1383.51,153.23,1382.98,128.5z M1346.79,236.42 c-0.16,17.94-0.77,35.89-1.51,53.82c-0.45,10.94-2.53,21.67-6.65,31.86c-8.82,21.8-25.14,35.06-47.6,41.12 c-9.68,2.61-19.61,3.62-29.58,3.95c-15.54,0.51-31.1,0.87-46.65,0.92c-31.38,0.09-62.77,0.13-94.15-0.21 c-13.94-0.15-27.93-0.46-41.72-3.01c-15.78-2.91-29.89-9.06-41.22-20.91c-9.31-9.74-14.92-21.33-17.62-34.29 c-1.6-7.65-2.76-15.48-3.09-23.27c-0.76-17.66-0.97-35.35-1.25-53.03c-0.16-10.37-0.03-20.74-0.03-31.12c-0.11,0-0.23,0-0.34,0 c0.26-22.74,0.31-45.48,0.87-68.21c0.28-11.67,0.65-23.38,2.94-34.92c3.62-18.26,11.7-33.81,26.79-45.24 c9.88-7.48,21.23-11.39,33.26-13.58c14.71-2.68,29.64-2.93,44.51-3.05c38.03-0.3,76.06-0.24,114.09-0.06 c11.55,0.06,23.12,0.74,34.65,1.62c8.74,0.67,17.35,2.38,25.66,5.39c21.49,7.78,35.49,22.68,42.45,44.35 c2.66,8.28,4.18,16.8,4.61,25.43c0.74,15,1.37,30.02,1.52,45.04C1346.98,184.82,1347.03,210.62,1346.79,236.42z"/> <path d="M1181.39,98.59c-59.54-0.03-104.19,48.03-104.21,103.89c-0.02,56.78,45.29,104.05,103.96,104.15 c57.6,0.1,103.83-45.86,104.26-103.9C1285.19,145.38,1239.65,98.62,1181.39,98.59z M1248.25,206.03 c-1.52,36.52-33.02,65.65-70.52,63.65c-37.43-1.99-66.58-34.16-63.37-72.7c3.05-36.62,34.38-63.53,70.64-61.44 C1223.59,137.78,1250.34,170.68,1248.25,206.03z"/> <path d="M1289.13,70.21c-13.47,0.06-24.35,10.92-24.35,24.34c0,11.96,8.79,24.59,24.62,24.46c16.69-0.14,24.51-13.68,24.34-24.73 C1313.53,80.88,1302.66,70.15,1289.13,70.21z"/> </g> </svg>